<?xml version="1.0" encoding="UTF-8"?>
<svg width="1390px" height="211px" viewBox="0 0 1390 211" version="1.1" xmlns="http://www.w3.org/2000/svg" xmlns:xlink="http://www.w3.org/1999/xlink">
    <title>lc-logo-rgb</title>
    <g id="Page-1" stroke="none" stroke-width="1" fill="none" fill-rule="evenodd">
        <g id="Artboard" transform="translate(-65.000000, -159.000000)" fill-rule="nonzero">
            <g id="lc-logo-rgb" transform="translate(760.000000, 264.323015) scale(1, -1) translate(-760.000000, -264.323015) translate(65.000000, 159.000000)">
                <path d="M505.204249,80.0539951 L505.204249,80.6502538 C505.204249,113.810255 480.35581,140.992637 447.746628,140.992637 C414.225332,140.992637 391.185057,113.810255 391.185057,81.2515231 L391.185057,80.6502538 C391.185057,47.4902526 415.725274,20.6085048 448.338975,20.6085048 C481.856757,20.6085048 505.204249,47.4902526 505.204249,80.0539951 L505.204249,80.0539951 Z M367.542396,80.0539951 L367.542396,80.6502538 C367.542396,124.262319 401.65403,161.305518 448.338975,161.305518 C494.722726,161.305518 528.847914,124.858578 528.847914,81.2515231 L528.847914,80.6502538 C528.847914,37.0431987 494.431572,1.13686838e-13 447.746628,1.13686838e-13 C401.357857,1.13686838e-13 367.542396,36.4419294 367.542396,80.0539951" id="path14" fill="#3C3A3D"></path>
                <polyline id="path16" fill="#3C3A3D" points="528.438762 158.45895 553.708771 158.45895 605.440725 30.3267327 657.481883 158.45895 682.153432 158.45895 615.255483 2.84656797 595.042468 2.84656797 528.438762 158.45895"></polyline>
                <path d="M811.615427,89.9148114 C808.928645,117.989077 792.787905,141.889531 762.300955,141.889531 C735.703823,141.889531 715.387544,119.782863 712.099244,89.9148114 L811.615427,89.9148114 Z M766.486519,20.0122461 C787.705076,20.0122461 802.652805,28.6755344 815.204485,41.818279 L829.540671,28.9761691 C814.001449,11.654603 795.183953,5.68434189e-14 765.885001,5.68434189e-14 C723.457913,5.68434189e-14 688.795424,32.5637425 688.795424,80.6502538 C688.795424,125.459847 720.169614,161.305518 762.902473,161.305518 C808.622873,161.305518 834.919246,124.858578 834.919246,79.462747 C834.919246,77.3683256 834.919246,74.9782802 834.6235,71.3907068 L712.099244,71.3907068 C715.387544,38.8319748 739.292882,20.0122461 766.486519,20.0122461" id="path18" fill="#3C3A3D"></path>
                <path d="M857.69179,80.0539951 L857.69179,80.6502538 C857.69179,124.262319 891.777979,161.305518 936.933654,161.305518 C966.234937,161.305518 984.47175,149.059667 998.831485,133.822501 L983.578969,117.693452 C971.310749,130.540573 957.557905,140.992637 936.627701,140.992637 C905.234902,140.992637 881.315385,114.406514 881.315385,81.2515231 L881.315385,80.6502538 C881.315385,47.1996391 905.836777,20.6085048 938.127373,20.6085048 C957.863858,20.6085048 973.106343,30.4693212 985.369547,43.6120657 L1000.02019,29.8730624 C984.47175,12.5514964 965.939015,0 936.933654,0 C891.777979,0 857.69179,36.7425641 857.69179,80.0539951" id="path20" fill="#3C3A3D"></path>
                <path d="M1132.31524,61.081977 L1132.31524,75.4390545 C1120.98595,78.7309954 1106.0703,82.0229362 1087.29318,82.0229362 C1058.66234,82.0229362 1042.26112,69.4573571 1042.26112,50.9050623 L1042.26112,50.3078962 C1042.26112,30.8623613 1060.1579,19.4911144 1081.03081,19.4911144 C1109.35654,19.4911144 1132.31524,36.5479848 1132.31524,61.081977 Z M1018.99731,49.1085458 L1018.99731,49.7157483 C1018.99731,82.9211945 1045.84248,100.274139 1084.90228,100.274139 C1104.58974,100.274139 1118.30493,97.5793641 1132.02013,93.6902571 L1132.02013,98.4776224 C1132.02013,125.997445 1115.3138,140.359541 1086.39784,140.359541 C1068.21095,140.359541 1053.89053,135.873268 1039.5751,129.289386 L1032.72251,148.137755 C1049.71395,155.915969 1066.11516,161.305518 1088.77875,161.305518 C1110.54699,161.305518 1127.54843,155.313784 1138.57761,144.248648 C1149.31668,133.479585 1154.68371,118.520323 1154.68371,98.7736963 L1154.68371,4.24079686 L1132.02013,4.24079686 L1132.02013,27.2793647 C1121.28106,13.5094169 1103.6944,0.948855989 1076.55411,0.948855989 C1047.62816,0.948855989 1018.99731,17.4035421 1018.99731,49.1085458" id="path22" fill="#3C3A3D"></path>
                <path d="M1176.5074,23.6870433 L1188.22718,40.1422443 C1205.04098,27.5762719 1223.67372,20.3949994 1241.9991,20.3949994 C1260.61672,20.3949994 1274.13528,29.9700295 1274.13528,44.9297594 L1274.13528,45.5269442 C1274.13528,61.0838589 1255.81494,67.0657435 1235.37838,72.7515449 C1211.05707,79.6317159 1184.01491,88.0123764 1184.01491,116.436365 L1184.01491,117.028532 C1184.01491,143.655948 1206.25025,161.305518 1236.88492,161.305518 C1255.81494,161.305518 1276.84101,154.726449 1292.75794,144.258151 L1282.24742,126.904663 C1267.82695,136.178592 1251.30539,141.864393 1236.28029,141.864393 C1217.95995,141.864393 1206.25025,132.289363 1206.25025,119.422289 L1206.25025,118.825104 C1206.25025,104.166476 1225.47754,98.4806745 1246.19625,92.2027067 C1270.22533,85.0214341 1296.06326,75.7475056 1296.06326,47.9156833 L1296.06326,47.3235169 C1296.06326,18.0062602 1271.73187,0.948855989 1240.78984,0.948855989 C1218.56458,0.948855989 1193.93087,9.62559971 1176.5074,23.6870433" id="path24" fill="#3C3A3D"></path>
                <path d="M1317.88694,44.7723379 L1317.88694,210.64603 L1340.92578,210.64603 L1340.92578,160.720289 L1390,160.720289 L1390,138.425898 L1340.92578,138.425898 L1340.92578,47.7680838 C1340.92578,28.8621584 1351.40117,21.9593558 1366.96117,21.9593558 C1374.73615,21.9593558 1381.32656,23.4597461 1389.39768,27.361768 L1389.39768,7.55460143 C1381.32656,3.34545266 1372.64307,0.948855989 1361.5754,0.948855989 C1336.73964,0.948855989 1317.88694,13.2540708 1317.88694,44.7723379" id="path26" fill="#3C3A3D"></path>
                <path d="M348.377678,21.9593558 C332.688977,21.9593558 322.121021,28.8621584 322.121021,47.7680838 L322.121021,135.545954 L322.121021,138.425898 L322.121021,210.64603 L298.889637,210.64603 L298.889637,138.425898 L298.889637,135.545954 L298.889637,44.7723379 C298.889637,13.2540708 317.903759,0.948855989 342.946663,0.948855989 C354.109854,0.948855989 362.864773,3.35048752 371.002692,7.55460143 L371.002692,27.361768 C362.864773,23.4597461 356.217473,21.9593558 348.377678,21.9593558" id="path28" fill="#3C3A3D"></path>
                <path d="M137.584118,105.797443 C137.584118,87.7167713 122.928145,73.0619112 104.848336,73.0619112 C86.7710325,73.0619112 72.1130552,87.7167713 72.1130552,105.797443 C72.1130552,123.873106 86.7710325,138.532974 104.848336,138.532974 C122.928145,138.532974 137.584118,123.873106 137.584118,105.797443" id="path30" fill="#EE2153"></path>
                <path d="M205.109653,210.64603 L113.70394,210.64603 C111.172477,210.64603 109.118439,208.592579 109.118439,206.059821 L109.118439,184.021802 C109.118439,181.489044 111.172477,179.435593 113.70394,179.435593 L174.115376,179.435593 C176.463137,179.279188 178.320351,177.402323 178.387473,175.036062 L178.387473,114.653503 C178.387473,112.120746 180.441511,110.067295 182.974489,110.067295 L205.109653,110.067295 C207.642631,110.067295 209.697174,112.120746 209.697174,114.653503 L209.697174,206.059821 C209.697174,208.592579 207.642631,210.64603 205.109653,210.64603" id="path32" fill="#F49AB3"></path>
                <path d="M4.58752038,0.948855989 L95.9917192,0.948855989 C98.5246966,0.948855989 100.578735,3.00230696 100.578735,5.53001933 L100.578735,27.5781293 C100.578735,30.1058416 98.5246966,32.1592926 95.9917192,32.1592926 L35.5797786,32.1592926 C33.2340366,32.315698 31.3768226,34.1925622 31.3102051,36.5588239 L31.3102051,96.9413822 C31.3102051,99.4741399 29.2556622,101.527591 26.7226847,101.527591 L4.58752038,101.527591 C2.05454296,101.527591 0,99.4741399 0,96.9413822 L0,5.53001933 C0,3.00230696 2.05454296,0.948855989 4.58752038,0.948855989" id="path34" fill="#F49AB3"></path>
            </g>
        </g>
    </g>
</svg>